<svg width="161" height="50" viewBox="0 0 161 50" fill="none" xmlns="http://www.w3.org/2000/svg">
    <circle cx="15.9204" cy="25" r="15.9204" fill="#FD4B4B"/>
    <mask id="mask0_383_869" style="mask-type:alpha" maskUnits="userSpaceOnUse" x="0" y="9" width="32" height="32">
        <circle cx="15.9204" cy="25" r="15.9204" fill="#FD4B4B"/>
    </mask>
    <g mask="url(#mask0_383_869)">
        <path d="M9.68481 15.1824L25.0745 15.1824L25.0745 30.5722" stroke="white" stroke-width="2.12272"/>
        <path d="M5.43945 19.4279L20.8292 19.4279L20.8292 34.8176" stroke="white" stroke-width="2.12272"/>
        <path d="M1.19409 23.6733L16.5838 23.6733L16.5838 39.063" stroke="white" stroke-width="2.12272"/>
    </g>
    <path d="M40.3423 36.68V14.1733H50.1912C52.1586 14.1733 53.806 14.3393 55.1334 14.6711C56.4608 14.9793 57.5275 15.5363 58.3334 16.3422C59.1394 17.1481 59.7201 18.2741 60.0757 19.72C60.4312 21.1422 60.609 22.9793 60.609 25.2311C60.609 27.5778 60.4312 29.4978 60.0757 30.9911C59.7201 32.4844 59.1394 33.6459 58.3334 34.4756C57.5275 35.3052 56.4608 35.8859 55.1334 36.2178C53.806 36.5259 52.1586 36.68 50.1912 36.68H40.3423ZM49.3734 18.9733H46.0312V31.88H49.3734C50.7482 31.88 51.8268 31.7259 52.609 31.4178C53.4149 31.1096 53.9838 30.4815 54.3157 29.5333C54.6712 28.5852 54.849 27.1511 54.849 25.2311C54.849 23.4059 54.6712 22.0548 54.3157 21.1778C53.9838 20.277 53.4149 19.6844 52.609 19.4C51.8268 19.1156 50.7482 18.9733 49.3734 18.9733ZM79.4151 36.1111C78.7514 36.3481 77.8269 36.5615 76.6418 36.7511C75.4803 36.917 74.0936 37 72.4818 37C70.4432 37 68.701 36.7393 67.2551 36.2178C65.8329 35.6726 64.7544 34.76 64.0195 33.48C63.2847 32.1763 62.9173 30.3748 62.9173 28.0756C62.9173 24.9467 63.6284 22.683 65.0507 21.2844C66.4966 19.8859 68.7247 19.1867 71.7351 19.1867C73.8921 19.1867 75.5869 19.4948 76.8195 20.1111C78.0758 20.7274 78.9647 21.6044 79.4862 22.7422C80.0314 23.8563 80.304 25.1837 80.304 26.7244C80.304 27.1748 80.2803 27.6607 80.2329 28.1822C80.2092 28.7037 80.1499 29.2133 80.0551 29.7111L79.9129 29.8533H68.2151C68.381 30.8963 68.8669 31.5837 69.6729 31.9156C70.5025 32.2474 71.8418 32.4133 73.6907 32.4133C74.9232 32.4133 75.9425 32.3896 76.7484 32.3422C77.5781 32.2711 78.4195 32.1763 79.2729 32.0578L79.4151 32.1644V36.1111ZM75.3618 26.12C75.3618 25.5511 75.2669 25.0652 75.0773 24.6622C74.9114 24.2356 74.5677 23.9156 74.0462 23.7022C73.5247 23.4652 72.7544 23.3467 71.7351 23.3467C70.2418 23.3467 69.2581 23.6074 68.784 24.1289C68.3336 24.6267 68.1084 25.2904 68.1084 26.12H75.3618ZM81.9062 23.9867V19.3644H84.4307V18.4756C84.4307 16.1289 84.9758 14.4459 86.0662 13.4267C87.1566 12.3837 88.7803 11.8622 90.9373 11.8622C91.6958 11.8622 92.3951 11.9333 93.0351 12.0756C93.6751 12.1941 94.2321 12.3363 94.7062 12.5022V16.4844L94.5995 16.5556C94.1729 16.5081 93.7462 16.4726 93.3195 16.4489C92.8929 16.4015 92.4899 16.3778 92.1107 16.3778C91.3047 16.3778 90.7358 16.5318 90.404 16.84C90.0958 17.1244 89.9418 17.5748 89.9418 18.1911V19.3644H94.7062V23.9867H89.9418V36.68H84.4307V23.9867H81.9062ZM96.1423 23.9867V19.3644H98.6668V18.4756C98.6668 16.1289 99.212 14.4459 100.302 13.4267C101.393 12.3837 103.016 11.8622 105.173 11.8622C105.932 11.8622 106.631 11.9333 107.271 12.0756C107.911 12.1941 108.468 12.3363 108.942 12.5022V16.4844L108.836 16.5556C108.409 16.5081 107.982 16.4726 107.556 16.4489C107.129 16.4015 106.726 16.3778 106.347 16.3778C105.541 16.3778 104.972 16.5318 104.64 16.84C104.332 17.1244 104.178 17.5748 104.178 18.1911V19.3644H108.942V23.9867H104.178V36.68H98.6668V23.9867H96.1423ZM117.17 12.9289C117.241 13.7822 117.276 14.4933 117.276 15.0622C117.276 15.3941 117.264 15.7378 117.241 16.0933C117.241 16.4252 117.217 16.8044 117.17 17.2311C116.672 17.3259 116.186 17.397 115.712 17.4444C115.238 17.4918 114.764 17.5156 114.29 17.5156C113.839 17.5156 113.377 17.4918 112.903 17.4444C112.453 17.397 111.99 17.3259 111.516 17.2311C111.469 16.8281 111.433 16.4607 111.41 16.1289C111.386 15.7733 111.374 15.4296 111.374 15.0978C111.374 14.7896 111.386 14.4578 111.41 14.1022C111.433 13.7467 111.469 13.3556 111.516 12.9289C111.99 12.8104 112.464 12.7393 112.938 12.7156C113.436 12.6681 113.922 12.6444 114.396 12.6444C114.847 12.6444 115.297 12.6681 115.747 12.7156C116.221 12.7393 116.695 12.8104 117.17 12.9289ZM117.17 36.68H111.481V19.3644H117.17V36.68ZM126.795 36.68H121.106V19.3644H126.511L126.795 22.5289H126.902C127.234 21.4622 127.826 20.6444 128.68 20.0756C129.533 19.483 130.718 19.1867 132.235 19.1867C134.297 19.1867 135.814 19.7674 136.786 20.9289C137.782 22.0904 138.28 24.1052 138.28 26.9733V36.68H132.591L132.555 28.0756C132.555 26.7481 132.354 25.8 131.951 25.2311C131.548 24.6622 130.789 24.3778 129.675 24.3778C128.632 24.3778 127.897 24.6385 127.471 25.16C127.044 25.6578 126.819 26.523 126.795 27.7556V36.68ZM148.76 19.1867C151.036 19.1867 152.873 19.4237 154.271 19.8978C155.67 20.3719 156.689 21.2489 157.329 22.5289C157.993 23.7852 158.325 25.6104 158.325 28.0044V36.68H153.169L152.991 35.0444H152.885C152.434 35.637 151.735 36.1111 150.787 36.4667C149.839 36.8222 148.606 37 147.089 37C142.989 37 140.938 35.08 140.938 31.24C140.938 29.6044 141.471 28.3244 142.538 27.4C143.629 26.4519 145.335 25.9778 147.658 25.9778H152.92C152.754 24.9822 152.328 24.3185 151.64 23.9867C150.953 23.6311 149.78 23.4533 148.12 23.4533C147.077 23.4533 146.046 23.5363 145.027 23.7022C144.031 23.8444 143.154 24.0104 142.396 24.2L142.289 24.1289L142.325 20.0044C142.799 19.8622 143.403 19.7319 144.138 19.6133C144.873 19.4711 145.643 19.3644 146.449 19.2933C147.279 19.2222 148.049 19.1867 148.76 19.1867ZM148.547 32.8044C150.017 32.8044 151.119 32.6267 151.854 32.2711C152.589 31.8919 152.968 31.2993 152.991 30.4933V29.6044H148.974C147.931 29.6044 147.196 29.7585 146.769 30.0667C146.366 30.3511 146.165 30.7422 146.165 31.24C146.165 31.8326 146.378 32.2474 146.805 32.4844C147.231 32.6978 147.812 32.8044 148.547 32.8044Z" fill="white"/>
</svg>
