<svg width="20" height="20" viewBox="0 0 20 20" fill="none" xmlns="http://www.w3.org/2000/svg">
    <path d="M11.2188 7.81683L6.60853 12.4262C6.07392 12.9611 6.07392 13.828 6.60853 14.3629V14.3629C7.1434 14.8975 8.01031 14.8975 8.54517 14.3629L15.7365 7.17156C16.2502 6.65795 16.5388 5.96132 16.5388 5.23492C16.5388 4.50852 16.2502 3.81189 15.7365 3.29828V3.29828C15.223 2.78466 14.5265 2.49609 13.8003 2.49609C13.074 2.49609 12.3775 2.78466 11.8641 3.29828L4.67273 10.4904C3.90216 11.2607 3.46924 12.3055 3.46924 13.395C3.46924 14.4845 3.90216 15.5293 4.67273 16.2995V16.2995C5.44305 17.0699 6.48785 17.5027 7.57727 17.5027C8.66669 17.5027 9.71149 17.0699 10.4818 16.2995L15.734 11.0473" stroke="white" stroke-width="1.25" stroke-linecap="round" stroke-linejoin="round"/>
</svg>
